<mxfile host="app.diagrams.net" modified="2024-05-02T13:00:24.599Z" agent="Mozilla/5.0 (Windows NT 10.0; Win64; x64) AppleWebKit/537.36 (KHTML, like Gecko) Chrome/124.0.0.0 Safari/537.36" version="24.3.1" etag="N_OdUqTjPbfFUpSipoJW" type="github">
  <diagram name="Trang-1" id="eIjQr3G62Yu96J294Xsu">
    <mxGraphModel>
      <root>
        <mxCell id="0" />
        <mxCell id="1" parent="0" />
      </root>
    </mxGraphModel>
  </diagram>
</mxfile>
